<?xml version="1.0" encoding="UTF-8" standalone="no"?>
<svg xmlns:dc="http://purl.org/dc/elements/1.1/" xmlns:cc="http://creativecommons.org/ns#" xmlns:rdf="http://www.w3.org/1999/02/22-rdf-syntax-ns#" xmlns:svg="http://www.w3.org/2000/svg" xmlns="http://www.w3.org/2000/svg" viewBox="0 0 14 14" height="14" width="14" id="svg109" version="1.1">
  <metadata id="metadata115">
    <rdf:RDF>
      <cc:Work rdf:about="">
        <dc:format>image/svgxml</dc:format>
        <dc:type rdf:resource="http://purl.org/dc/dcmitype/StillImage"/>
        <dc:title/>
      </cc:Work>
    </rdf:RDF>
  </metadata>
  <defs id="defs113"/>
  <path id="rect4495" d="M 10.318359 0 A 1.741594 1.2970195 0 0 0 8.6601562 0.90039062 A 1.1655669 0.92076844 0 0 0 8.2539062 0.84179688 A 1.1655669 0.92076844 0 0 0 7.0898438 1.7617188 A 1.1655669 0.92076844 0 0 0 7.0917969 1.7851562 A 0.82779479 0.70560503 0 0 0 7 1.7792969 A 0.82779479 0.70560503 0 0 0 6.171875 2.484375 A 0.82779479 0.70560503 0 0 0 7 3.1894531 A 0.82779479 0.70560503 0 0 0 7.8125 2.6152344 A 1.1655669 0.92076844 0 0 0 8.2539062 2.6835938 A 1.1655669 0.92076844 0 0 0 9.2050781 2.2929688 A 1.741594 1.2970195 0 0 0 10.318359 2.59375 A 1.741594 1.2970195 0 0 0 12.058594 1.296875 A 1.741594 1.2970195 0 0 0 10.318359 0 z M 6.1289062 4.59375 L 5.7421875 14 L 8.2578125 14 L 7.859375 4.59375 L 6.1289062 4.59375 z " style="fill:#555555;fill-opacity:1;stroke:none"/>
</svg>